<?xml version="1.0" encoding="UTF-8" standalone="no"?>
<!-- Created with Inkscape (http://www.inkscape.org/) -->

<svg
   xmlns:dc="http://purl.org/dc/elements/1.1/"
   xmlns:cc="http://creativecommons.org/ns#"
   xmlns:rdf="http://www.w3.org/1999/02/22-rdf-syntax-ns#"
   xmlns:svg="http://www.w3.org/2000/svg"
   xmlns="http://www.w3.org/2000/svg"
   xmlns:sodipodi="http://sodipodi.sourceforge.net/DTD/sodipodi-0.dtd"
   xmlns:inkscape="http://www.inkscape.org/namespaces/inkscape"
   width="642.13116"
   height="148.76062"
   id="svg2"
   version="1.1"
   inkscape:version="0.48.4 r9939"
   sodipodi:docname="superscribe-black.svg">
  <defs
     id="defs4" />
  <sodipodi:namedview
     id="base"
     pagecolor="#ffffff"
     bordercolor="#666666"
     borderopacity="1.0"
     inkscape:pageopacity="0.0"
     inkscape:pageshadow="2"
     inkscape:zoom="1.3736502"
     inkscape:cx="286.12527"
     inkscape:cy="58.496597"
     inkscape:document-units="px"
     inkscape:current-layer="text3823"
     showgrid="false"
     fit-margin-top="15"
     fit-margin-left="12"
     fit-margin-right="12"
     fit-margin-bottom="15"
     inkscape:window-width="1700"
     inkscape:window-height="768"
     inkscape:window-x="284"
     inkscape:window-y="82"
     inkscape:window-maximized="0" />
  <metadata
     id="metadata7">
    <rdf:RDF>
      <cc:Work
         rdf:about="">
        <dc:format>image/svg+xml</dc:format>
        <dc:type
           rdf:resource="http://purl.org/dc/dcmitype/StillImage" />
        <dc:title />
      </cc:Work>
    </rdf:RDF>
  </metadata>
  <g
     inkscape:label="Layer 1"
     inkscape:groupmode="layer"
     id="layer1"
     transform="translate(-4.7862445,-116.75979)">
    <g
       id="g3017"
       transform="matrix(4.2553249,0,0,4.4339145,18.913907,136.1937)"
       style="fill:#000000;fill-opacity:1;stroke:#000000;stroke-opacity:1">
      <g
         id="Layer_1"
         style="fill:#000000;fill-opacity:1;stroke:#000000;stroke-opacity:1" />
      <g
         id="loop_x5F_alt3"
         style="fill:#000000;fill-opacity:1;stroke:#000000;stroke-opacity:1">
        <g
           id="g3005"
           style="fill:#000000;fill-opacity:1;stroke:#000000;stroke-opacity:1">
          <path
             id="path3007"
             d="m 28,12 v 2 c 0,1.102 -0.898,2 -2,2 H 11.996 L 12,12 4,18 12,24 11.996,20 H 26 c 3.309,0 6,-2.695 6,-6 v -2 h -4 z"
             style="fill:#000000;fill-opacity:1;stroke:#000000;stroke-opacity:1"
             inkscape:connector-curvature="0" />
          <path
             id="path3009"
             d="M 4,10 C 4,8.895 4.898,8 6,8 h 14 v 4 L 27.992,6 20,0 V 4 H 6 C 2.691,4 0,6.688 0,10 v 2 h 4 v -2 z"
             style="fill:#000000;fill-opacity:1;stroke:#000000;stroke-opacity:1"
             inkscape:connector-curvature="0" />
        </g>
      </g>
    </g>
    <g
       style="font-size:12px;font-style:normal;font-weight:normal;fill:#000000;fill-opacity:1;stroke:#000000;stroke-width:2.80930400000000000;stroke-linecap:square;stroke-linejoin:miter;stroke-miterlimit:10;stroke-opacity:1;stroke-dasharray:none;stroke-dashoffset:0;font-family:Dialog"
       id="g3818"
       transform="matrix(0.64378298,0,0,0.47468552,160.44247,47.386382)">
      <g
         id="g3808"
         style="fill:#000000;fill-opacity:1;stroke:#000000;stroke-width:3.10681200000000010;stroke-miterlimit:10;stroke-opacity:1;stroke-dasharray:none"
         transform="matrix(0.88324203,0,0,0.92573735,-2.8321492,13.290356)">
        <g
           id="g3810"
           style="fill:#000000;fill-opacity:1;stroke:#000000;stroke-width:3.10681200000000010;stroke-miterlimit:10;stroke-opacity:1;stroke-dasharray:none">
          <path
             id="path3812"
             d="m 86.0625,182.25 -3.6563,20.1094 q -7.1718,-1.9688 -17.0156,-1.9688 -21.6562,0 -21.6562,31.0782 l 0,163.6874 q 0,24.0469 -13.2891,37.6172 -13.2891,13.5704 -33.6797,13.5704 -9,0 -20.6718,-2.5313 l 3.7968,-20.25 q 7.0313,2.1094 16.875,2.1094 21.6563,0 21.6563,-31.2188 l 0,-163.5469 q 0,-24.1874 13.289,-37.6874 13.2891,-13.5 33.6797,-13.5 9.1406,0 20.6719,2.5312 z"
             inkscape:connector-curvature="0"
             style="fill:#000000;fill-opacity:1;stroke:#000000;stroke-width:3.10681200000000010;stroke-miterlimit:10;stroke-opacity:1;stroke-dasharray:none" />
        </g>
      </g>
    </g>
    <g
       style="font-size:93.2820816px;font-style:normal;font-weight:normal;line-height:125%;letter-spacing:-1px;word-spacing:0px;fill:#000000;fill-opacity:1;stroke:none;font-family:Sans"
       id="text3823">
      <path
         d="m 239.31546,201.90222 -18.56361,0 3.35631,-15.67132 c 0.0626,-0.62246 0.37383,-1.46225 0.93373,-2.51937 1.86553,-3.35722 5.19242,-5.03585 9.98068,-5.03589 1.6169,4e-5 2.79925,0.093 3.54704,0.27898 2.85998,0.80852 4.28999,2.73576 4.29004,5.78174 -5e-5,0.49916 -0.0627,0.96603 -0.18788,1.4006 z m -3.82602,16.41717 -31.15476,0 c -3.17318,0 -5.972,-1.32136 -8.39647,-3.96409 -2.42448,-2.64272 -3.63672,-5.58103 -3.63671,-8.81494 -1e-5,-0.74773 0.0617,-1.49453 0.18503,-2.24039 l 3.91712,-18.46967 c 0.24861,-1.05706 0.8711,-2.23845 1.86747,-3.54419 1.30569,-1.8029 2.67403,-2.70437 4.105,-2.70441 1.24306,4e-5 2.15971,0.71504 2.74995,2.14502 0.59021,1.43005 0.76102,2.76659 0.51242,4.00964 l -2.61047,12.12712 c -0.0626,0.49726 -0.094,0.96412 -0.0939,1.4006 -1e-5,1.74033 0.5755,3.186 1.72655,4.33702 1.15102,1.15104 2.59669,1.72656 4.33701,1.72655 l 29.38409,0 c 1.74026,1e-5 3.17027,0.54421 4.29004,1.6326 1.11966,1.08842 1.67952,2.40978 1.67958,3.96409 -6e-5,2.17682 -0.93284,4.12019 -2.79835,5.83013 -1.86562,1.70995 -3.8868,2.56492 -6.06356,2.56492 z"
         style="font-variant:normal;font-stretch:normal;font-family:Bulgari;-inkscape-font-specification:Bulgari"
         id="path2995" />
      <path
         d="m 301.84907,202.46018 c -0.7459,3.54516 -3.07785,6.93468 -6.99587,10.16857 -3.91811,3.2339 -7.64971,4.85085 -11.19482,4.85085 l -22.48073,0 -5.31771,25.18514 c -0.24863,1.11969 -0.96363,2.23941 -2.14502,3.35915 -1.18141,1.11969 -2.36328,1.67955 -3.54562,1.67958 -1.24308,-3e-5 -2.20671,-0.59073 -2.89087,-1.7721 -0.68417,-1.18142 -0.90194,-2.2703 -0.65333,-3.26663 l 11.28734,-53.16863 9.23483,0 -2.98623,13.99175 11.28734,0 c 2.55065,10e-6 4.77443,-1.05708 6.67134,-3.17128 1.89684,-2.11416 2.84528,-4.44659 2.84532,-6.99729 -4e-5,-1.80291 -0.52858,-3.29508 -1.58564,-4.4765 -1.05712,-1.18137 -2.54976,-1.77207 -4.47792,-1.7721 l -19.77633,0 c -1.0571,3e-5 -2.20718,-0.37384 -3.45025,-1.12162 -1.4936,-0.99443 -2.08477,-2.17583 -1.77352,-3.54419 0.31123,-1.49166 1.43095,-2.70437 3.35915,-3.63814 1.55431,-0.68318 2.9217,-1.02479 4.10216,-1.02483 l 30.5057,0 c 3.17122,4e-5 6.01607,1.29056 8.53454,3.87157 2.51836,2.58108 3.77757,5.51892 3.77763,8.81352 -6e-5,0.74587 -0.0627,1.49267 -0.18789,2.24039 z"
         style="font-variant:normal;font-stretch:normal;font-family:Bulgari;-inkscape-font-specification:Bulgari"
         id="path2997" />
      <path
         d="m 341.63436,218.31939 -23.97243,0 c -3.17318,0 -5.972,-1.32136 -8.39646,-3.96409 -2.42449,-2.64272 -3.63672,-5.58103 -3.63672,-8.81494 0,-0.74773 0.0617,-1.49453 0.18504,-2.24039 l 2.0525,-9.7017 c 0.80847,-3.60585 3.15608,-6.99442 7.04284,-10.16572 3.88674,-3.17123 7.634,-4.75687 11.24179,-4.75691 l 16.22929,0 c 3.29648,4e-5 6.15746,1.27443 8.58293,3.82318 2.42537,2.54881 3.63808,5.31585 3.63813,8.3011 -5e-5,2.30209 -0.91765,4.33941 -2.7528,6.11196 -1.83524,1.77259 -3.90293,2.65888 -6.20305,2.65886 l -24.53323,0 c -0.55988,2e-5 -1.24405,0.186 -2.0525,0.55796 -0.99448,0.49725 -1.58471,1.08842 -1.77068,1.77352 -0.12527,0.74586 0.21634,1.3674 1.02483,1.86462 0.62247,0.37388 1.21364,0.56082 1.77352,0.56081 l 24.53323,0 c 1.74027,1e-5 3.17028,0.54421 4.29004,1.6326 1.11968,1.08842 1.67954,2.40978 1.67958,3.96409 -4e-5,2.17682 -0.94848,4.12019 -2.84532,5.83013 -1.89692,1.70995 -3.93376,2.56492 -6.11053,2.56492 z m -7.27628,-27.98349 c 0.31122,-1.30757 -0.65288,-2.08568 -2.89229,-2.33433 -0.12339,3e-5 -1.39778,3e-5 -3.82317,0 -2.42545,3e-5 -3.73116,3e-5 -3.91712,0 -2.30209,0.24865 -3.57743,1.02676 -3.82603,2.33433 -0.24863,1.24311 0.71547,1.98895 2.8923,2.23754 0.24859,3e-5 1.53911,3e-5 3.87157,0 2.3324,3e-5 3.62292,3e-5 3.87157,0 2.30014,-0.24859 3.57453,-0.99443 3.82317,-2.23754 z"
         style="font-variant:normal;font-stretch:normal;font-family:Bulgari;-inkscape-font-specification:Bulgari"
         id="path2999" />
      <path
         d="m 387.82482,183.43255 c -0.25054,1.30574 -1.04431,2.40933 -2.3813,3.31076 -1.33705,0.9015 -2.5341,1.35223 -3.59116,1.35221 l -8.30111,0 c -1.36835,2e-5 -2.70537,0.55988 -4.01106,1.67957 -1.30572,1.11975 -2.08288,2.30115 -2.33148,3.5442 l -4.29289,19.96136 c -0.24862,1.11972 -0.94797,2.23944 -2.09805,3.35916 -1.15009,1.11972 -2.3163,1.67958 -3.49865,1.67958 -1.30571,0 -2.28498,-0.5907 -2.93784,-1.7721 -0.65285,-1.1814 -0.85497,-2.27027 -0.60635,-3.26664 l 6.1575,-29.1962 c 0.31124,-1.49165 1.15103,-2.75086 2.51937,-3.77762 1.36833,-1.02669 2.76702,-1.54005 4.1961,-1.54009 l 16.88404,0 c 1.30567,4e-5 2.42491,0.45125 3.35773,1.35362 0.93275,0.90246 1.24446,2.00652 0.93515,3.31219 z"
         style="font-variant:normal;font-stretch:normal;font-family:Bulgari;-inkscape-font-specification:Bulgari"
         id="path3001" />
      <path
         d="m 414.25035,218.31939 -24.06637,0 c -1.74032,0 -3.17033,-0.5442 -4.29004,-1.63261 -1.11972,-1.0884 -1.67958,-2.44108 -1.67958,-4.05803 0,-2.11418 0.94844,-4.02624 2.84532,-5.73619 1.89687,-1.70993 3.93372,-2.5649 6.11053,-2.56491 l 15.11052,0 c 0.55983,1e-5 1.29049,-0.21777 2.19199,-0.65333 0.90144,-0.43554 1.4148,-1.02624 1.54009,-1.7721 0.18595,-0.6851 -0.094,-1.24496 -0.83979,-1.67958 -0.74588,-0.43458 -1.36742,-0.65188 -1.86462,-0.6519 l -8.39505,0 c -2.67405,2e-5 -4.85086,-0.65379 -6.53042,-1.96141 -0.55987,-0.37195 -1.30667,-0.99349 -2.24039,-1.86462 -0.99447,-1.24305 -1.64732,-2.26883 -1.95856,-3.07732 -0.31125,-1.43094 -0.40425,-2.36372 -0.27898,-2.79835 0.0626,-0.37385 0.27992,-0.93371 0.6519,-1.67958 0.0626,-0.24859 0.40518,-0.71545 1.02768,-1.4006 4.47696,-5.40878 9.32781,-8.11318 14.55255,-8.11322 l 25.09119,0 c 1.1823,4e-5 2.39501,0.34165 3.63814,1.02483 1.55427,0.93187 2.14544,2.14458 1.77352,3.63814 -0.24867,1.36836 -1.30576,2.51845 -3.17127,3.45025 -1.49364,0.80851 -2.83066,1.21274 -4.01106,1.21271 l -25.93383,0 c -0.49725,3e-5 -1.11879,0.15565 -1.86462,0.46687 -0.99638,0.49726 -1.58755,1.11975 -1.77352,1.86746 -0.12338,0.62062 0.15655,1.14869 0.83979,1.58422 0.6832,0.43557 1.27437,0.65335 1.77352,0.65332 l 19.58844,0 c 2.61137,3e-5 4.92767,0.96412 6.9489,2.89229 2.02114,1.92822 3.03173,4.22933 3.03178,6.90336 -5e-5,3.60588 -2.06773,7.16573 -6.20305,10.67955 -4.13541,3.51383 -8.00698,5.27075 -11.61471,5.27075 z"
         style="font-variant:normal;font-stretch:normal;font-family:Bulgari;-inkscape-font-specification:Bulgari"
         id="path3003" />
      <path
         d="m 465.53933,218.31939 -16.6022,0 c -3.17319,0 -5.97201,-1.32136 -8.39647,-3.96409 -2.42448,-2.64272 -3.63672,-5.58103 -3.63672,-8.81494 0,-0.74773 0.0617,-1.49453 0.18504,-2.24039 l 2.0525,-9.7017 c 0.80847,-3.60585 3.15608,-6.99442 7.04285,-10.16572 3.88673,-3.17123 7.63399,-4.75687 11.24178,-4.75691 l 23.69345,0 c 1.1804,4e-5 2.39311,0.34165 3.63814,1.02483 1.55427,0.93187 2.14449,2.14458 1.77067,3.63814 -0.24867,1.36836 -1.30576,2.51845 -3.17127,3.45025 -1.49174,0.80851 -2.82876,1.21274 -4.01106,1.21271 l -22.2957,0 c -2.61143,3e-5 -4.84992,1.0576 -6.71546,3.1727 -1.86558,2.11515 -2.79836,4.47842 -2.79835,7.08981 -1e-5,3.10866 1.43,5.03591 4.29004,5.78174 0.74773,0.1879 1.96044,0.28184 3.63814,0.28183 0.87108,1e-5 2.17773,-0.0939 3.91996,-0.28183 1.18043,-0.18598 3.09249,-1.16525 5.73619,-2.93784 2.64364,-1.77256 4.52439,-2.81446 5.64225,-3.12573 1.36829,-0.37195 2.98524,-0.55794 4.85085,-0.55796 5.16204,2e-5 7.74309,1.80296 7.74314,5.40882 -5e-5,3.42179 -2.09905,6.85828 -6.297,10.30948 -4.19803,3.4512 -8.03829,5.1768 -11.52077,5.1768 z"
         style="font-variant:normal;font-stretch:normal;font-family:Bulgari;-inkscape-font-specification:Bulgari"
         id="path3005" />
      <path
         d="m 518.18904,183.43255 c -0.25055,1.30574 -1.04432,2.40933 -2.3813,3.31076 -1.33706,0.9015 -2.53411,1.35223 -3.59117,1.35221 l -8.3011,0 c -1.36836,2e-5 -2.70538,0.55988 -4.01107,1.67957 -1.30572,1.11975 -2.08288,2.30115 -2.33148,3.5442 l -4.29289,19.96136 c -0.24862,1.11972 -0.94797,2.23944 -2.09805,3.35916 -1.15009,1.11972 -2.3163,1.67958 -3.49864,1.67958 -1.30571,0 -2.28499,-0.5907 -2.93784,-1.7721 -0.65286,-1.1814 -0.85498,-2.27027 -0.60636,-3.26664 l 6.15751,-29.1962 c 0.31123,-1.49165 1.15102,-2.75086 2.51936,-3.77762 1.36833,-1.02669 2.76703,-1.54005 4.1961,-1.54009 l 16.88404,0 c 1.30567,4e-5 2.42491,0.45125 3.35773,1.35362 0.93275,0.90246 1.24447,2.00652 0.93516,3.31219 z"
         style="font-variant:normal;font-stretch:normal;font-family:Bulgari;-inkscape-font-specification:Bulgari"
         id="path3008" />
      <path
         d="m 535.66155,155.07329 c -0.0627,0.55993 -0.31221,1.46139 -0.74869,2.70441 -1.30573,2.73673 -3.07735,4.10506 -5.31487,4.105 -0.99638,6e-5 -1.85182,-0.38852 -2.56634,-1.16574 -0.71455,-0.7771 -1.0405,-1.75685 -0.97786,-2.93926 -1e-5,-0.5579 0.1243,-1.45937 0.37293,-2.70441 0.12334,-0.62052 0.37196,-1.52199 0.74584,-2.7044 1.36832,-2.67397 3.14089,-4.01099 5.31772,-4.01106 1.05707,7e-5 1.94288,0.41996 2.65743,1.25968 0.71451,0.83986 1.0101,1.7883 0.88676,2.84532 -0.0627,0.86927 -0.18695,1.73942 -0.37292,2.61046 z m -12.31501,58.20736 c -0.24863,1.11972 -0.96363,2.23944 -2.14502,3.35916 -1.18141,1.11972 -2.36328,1.67958 -3.54562,1.67958 -1.30571,0 -2.28499,-0.5907 -2.93784,-1.7721 -0.65285,-1.1814 -0.85497,-2.27027 -0.60635,-3.26664 l 6.1575,-29.38123 c 0.24861,-1.05896 0.94796,-2.16349 2.09805,-3.31361 1.15007,-1.15005 2.3476,-1.72509 3.59259,-1.72513 1.30569,4e-5 2.28497,0.57508 2.93784,1.72513 0.65284,1.15012 0.88627,2.25465 0.7003,3.31361 z"
         style="font-variant:normal;font-stretch:normal;font-family:Bulgari;-inkscape-font-specification:Bulgari"
         id="path3010" />
      <path
         d="m 581.96875,203.02099 c -0.7459,3.60778 -3.1087,7.05946 -7.08839,10.35503 -3.97979,3.29558 -7.77355,4.94337 -11.38128,4.94337 l -29.1051,0 c -1.80295,0 -3.2638,-0.55986 -4.38256,-1.67958 -1.11878,-1.11972 -1.67816,-2.48805 -1.67816,-4.105 0,-2.17681 0.96362,-4.13584 2.89087,-5.87711 1.92724,-1.74124 3.97926,-2.61187 6.15608,-2.61188 l 17.72382,0 c 2.61139,1e-5 4.88119,-1.07274 6.80941,-3.21825 1.92816,-2.14547 2.89226,-4.52392 2.89229,-7.13536 -3e-5,-1.80291 -0.54424,-3.31073 -1.6326,-4.52347 -1.08844,-1.21269 -2.59674,-1.81904 -4.5249,-1.81907 l -11.38128,0 -3.07733,14.27072 -9.32878,0 9.98068,-47.01396 c 0.18787,-0.9944 0.77904,-2.1758 1.77353,-3.5442 1.36831,-1.80287 2.76796,-2.70433 4.19894,-2.7044 1.30568,7e-5 2.25365,0.73073 2.8439,2.19199 0.5902,1.46139 0.761,2.81359 0.51241,4.05661 l -4.94194,23.32052 22.85365,0 c 3.41984,4e-5 6.59111,1.67962 9.51382,5.03873 1.80288,2.17685 2.70434,4.85088 2.7044,8.02213 -6e-5,0.68324 -0.0617,1.33609 -0.18504,1.95856 z"
         style="font-variant:normal;font-stretch:normal;font-family:Bulgari;-inkscape-font-specification:Bulgari"
         id="path3012" />
      <path
         d="m 621.95048,218.31939 -23.97243,0 c -3.17318,0 -5.972,-1.32136 -8.39647,-3.96409 -2.42448,-2.64272 -3.63672,-5.58103 -3.63671,-8.81494 -1e-5,-0.74773 0.0617,-1.49453 0.18504,-2.24039 l 2.0525,-9.7017 c 0.80847,-3.60585 3.15608,-6.99442 7.04284,-10.16572 3.88674,-3.17123 7.634,-4.75687 11.24179,-4.75691 l 16.22928,0 c 3.29649,4e-5 6.15746,1.27443 8.58293,3.82318 2.42538,2.54881 3.63809,5.31585 3.63814,8.3011 -5e-5,2.30209 -0.91765,4.33941 -2.7528,6.11196 -1.83525,1.77259 -3.90293,2.65888 -6.20305,2.65886 l -24.53324,0 c -0.55987,2e-5 -1.24404,0.186 -2.0525,0.55796 -0.99448,0.49725 -1.5847,1.08842 -1.77067,1.77352 -0.12527,0.74586 0.21633,1.3674 1.02482,1.86462 0.62248,0.37388 1.21365,0.56082 1.77353,0.56081 l 24.53323,0 c 1.74026,1e-5 3.17028,0.54421 4.29004,1.6326 1.11967,1.08842 1.67953,2.40978 1.67958,3.96409 -5e-5,2.17682 -0.94849,4.12019 -2.84532,5.83013 -1.89692,1.70995 -3.93377,2.56492 -6.11053,2.56492 z M 614.6742,190.3359 c 0.31121,-1.30757 -0.65288,-2.08568 -2.89229,-2.33433 -0.12339,3e-5 -1.39778,3e-5 -3.82318,0 -2.42545,3e-5 -3.73115,3e-5 -3.91712,0 -2.30208,0.24865 -3.57742,1.02676 -3.82602,2.33433 -0.24863,1.24311 0.71546,1.98895 2.89229,2.23754 0.2486,3e-5 1.53912,3e-5 3.87157,0 2.33241,3e-5 3.62293,3e-5 3.87157,0 2.30014,-0.24859 3.57453,-0.99443 3.82318,-2.23754 z"
         style="font-variant:normal;font-stretch:normal;font-family:Bulgari;-inkscape-font-specification:Bulgari"
         id="path3014" />
    </g>
  </g>
</svg>
